<?xml version="1.0" encoding="iso-8859-1"?>
<!-- Generator: Adobe Illustrator 16.0.0, SVG Export Plug-In . SVG Version: 6.00 Build 0)  -->
<!DOCTYPE svg PUBLIC "-//W3C//DTD SVG 1.1//EN" "http://www.w3.org/Graphics/SVG/1.1/DTD/svg11.dtd">
<svg version="1.1" id="Capa_1" xmlns="http://www.w3.org/2000/svg" xmlns:xlink="http://www.w3.org/1999/xlink" x="0px" y="0px"
	 width="612.001px" height="612.001px" viewBox="0 0 612.001 612.001" style="enable-background:new 0 0 612.001 612.001;"
	 xml:space="preserve">
<g>
	<g>
		<g>
			<path d="M243.066,253.885c-0.956,1.256-2.519,2.907-2.824,3.224c-1.343,1.405-3.149,2.276-5.086,2.451
				c-0.001,0-2.658,0.239-3.941,0.361c-2.354,0.219-4.701,0.413-7.049,0.607c-8.44,0.699-16.414,1.36-24.143,3.022
				c-31.337,6.734-60.47,21.57-89.064,45.354c-1.516,1.263-3.018,2.543-4.5,3.837c9.092-2.423,16.252-3.446,27.246-4.153
				c6.689-0.429,12.661-0.638,18.256-0.638c15.875,0,28.617,1.679,38.959,5.132c3.285,1.101,6.681,2.8,7.059,2.99
				c3.383,1.709,5.109,5.551,4.144,9.215c-0.125,0.474-1.248,4.707-2.194,7.371c-0.459,1.297-0.956,2.68-1.473,4.123
				c-2.529,7.058-5.679,15.84-7.287,22.248c-0.122,0.487-0.318,1.269-0.471,1.955c0.501,0.334,1.24,0.792,2.324,1.413
				c9.804,5.608,20.065,11.97,28.317,22.516c3.916,4.998,7.333,10.185,10.499,15.064c0.387,0.6,0.734,1.153,1.052,1.667
				c0.039-0.013,0.079-0.026,0.12-0.04c8.784-3.063,18.236-5.755,27.375-8.354l2.803-0.8c1.501-0.43,2.918-0.992,2.933-0.997
				c0.975-0.39,1.982-0.573,2.976-0.573c3.045,0,5.944,1.736,7.296,4.656c0.167,0.36,1.03,2.26,1.593,4.152
				c0.137,0.457,0.302,0.99,0.477,1.565c0.845,2.748,1.897,6.169,2.332,8.768c1.891,11.315,3.098,21.835,3.593,31.271
				c0.708,13.452-0.519,30.906-4.418,45.444c4.139-4.964,9.169-11.435,14.158-18.29c11.495-15.812,18.549-28.106,23.584-41.106
				c7.049-18.205,14.525-47.218,15.178-67.443c0.01-0.28,0.001-0.708-0.005-0.92c-0.119-3.105,1.563-6.009,4.318-7.44
				c1.529-0.798,4.147-2.325,5.082-3.117c3.247-2.758,6.582-5.431,9.807-8.015c5.807-4.652,11.289-9.052,16.371-13.938
				c12.171-11.714,21.237-21.217,31.563-35.127c30.35-40.888,47.528-77.345,55.706-118.207c2.328-11.622,5.064-26.764,6.01-42.486
				c-24.325,1.75-48.162,6.645-70.896,14.558C331.587,165.831,283.247,201.381,243.066,253.885z M358.577,276.442
				c-12.643,0-24.716-6.029-32.324-16.136c-3.209-4.051-5.493-8.784-6.796-14.066c-0.87-3.33-1.311-6.77-1.311-10.226
				c0-22.294,18.138-40.432,40.433-40.432c22.292,0,40.429,18.138,40.429,40.432C399.006,258.305,380.87,276.442,358.577,276.442z"
				/>
			<path d="M167.423,433.473c-0.817,0-1.298-0.01-1.298-0.01c-4.216-0.069-7.664-3.387-7.891-7.599
				c-0.058-1.059-0.323-6.501,0.008-9.667c0.422-4.02,1.835-8.995,3.371-14.171l0.392-1.324
				c-8.438,6.733-15.324,14.827-20.555,24.188c-6.402,11.458-10.385,24.811-11.117,36.85c4.314-0.144,8.517-0.554,12.492-1.218
				c3.045-0.51,5.997-1.201,8.769-2.055c9.495-2.926,18.535-8.058,27.628-15.684c1.851-1.551,3.616-3.152,5.252-4.767
				c2.229-2.191,4.375-4.595,6.492-7.277c-2.732,0.92-5.562,1.637-8.567,1.73C177.423,433.338,170.948,433.473,167.423,433.473z"/>
			<path d="M358.577,203.612c-17.898,0-32.401,14.505-32.401,32.401c0,2.848,0.369,5.612,1.064,8.25
				c1.024,4.19,2.805,7.921,5.368,11.133c5.907,7.899,15.343,13.016,25.969,13.016c17.892,0,32.397-14.505,32.397-32.398
				C390.976,218.116,376.468,203.612,358.577,203.612z"/>
			<path d="M539.597,108.381C486.812,45.985,412.884,7.88,331.435,1.084c-8.56-0.713-17.229-1.076-25.777-1.076
				c-76.453,0-149.731,28.544-206.337,80.373C42.395,132.502,7.506,203.594,1.083,280.558
				c-6.795,81.448,18.533,160.666,71.319,223.063c52.786,62.396,126.711,100.502,208.157,107.296
				c8.561,0.715,17.231,1.076,25.778,1.076c76.458,0,149.739-28.544,206.345-80.372c56.927-52.123,91.813-123.217,98.235-200.184
				C617.711,249.992,592.383,170.775,539.597,108.381z M206.336,422.393c-4.634,7.731-9.775,15.001-16.225,21.348
				c-1.837,1.81-3.752,3.541-5.728,5.196c-9.054,7.593-19.093,13.711-30.426,17.206c-3.212,0.987-6.492,1.744-9.807,2.3
				c-4.543,0.761-9.167,1.187-13.774,1.33c-0.469,0.015-1.749,0.113-3.159,0.113c-2.256,0-4.845-0.255-4.983-1.519
				c-0.655-16.495,4.739-34.03,12.209-47.396c8.862-15.851,21.584-27.82,37.547-36.396c1.146-0.615,2.021-0.883,2.692-0.883
				c1.646,0,2.067,1.606,2.28,3.617c-0.253,1.422-6.402,12.733-7.208,15.513c-1.005,3.445-3.087,10.061-3.522,14.214
				c-0.283,2.694,0.024,8.399,0.024,8.399s0.434,0.008,1.169,0.008c2.727,0,9.627-0.097,14.185-0.992c0.04,0,0.08,0,0.119,0
				c4.691,0,9.535-2.548,15.226-4.477c3.795-1.391,7.992-3.789,9.952-3.789c0.4,0,0.707,0.101,0.898,0.329
				C208.673,417.091,207.711,420.096,206.336,422.393z M469.92,128.056c-0.708,15.738-3.222,31.221-6.312,46.652
				c-9.205,46.007-29.348,83.984-57.133,121.418c-10.501,14.146-19.765,23.924-32.442,36.127
				c-8.329,8.012-17.733,14.804-26.546,22.285c-2.136,1.812-6.575,4.121-6.575,4.121s0.033,0.814,0.008,1.497
				c-0.676,20.984-8.183,50.629-15.716,70.085c-5.84,15.075-14.095,28.512-24.58,42.931c-3.044,4.183-19.68,26.755-25.563,29.825
				c-1.484,0.771-2.711,1.096-3.715,1.096c-4.102,0-4.503-5.358-3.558-7.261c6.646-13.383,9.566-36.439,8.583-55.118
				c-0.533-10.188-1.858-20.577-3.493-30.362c-0.432-2.575-1.837-6.861-2.586-9.368c-0.427-1.436-1.184-3.071-1.184-3.071
				s-1.759,0.705-3.713,1.264c-9.652,2.755-20.261,5.71-29.738,9.017c-2.077,0.723-3.535,1.076-4.651,1.076
				c-2.676,0-3.386-2.036-5.901-5.918c-3.199-4.934-6.461-9.859-10.084-14.486c-7.07-9.034-16.072-14.822-25.983-20.493
				c-7.443-4.26-7.333-5.59-5.654-12.29c2.037-8.119,6.181-19.201,8.98-27.104c0.861-2.428,1.996-6.733,1.996-6.733
				s-3.159-1.597-5.979-2.54c-10.849-3.624-23.887-4.719-36.415-4.719c-6.142,0-12.163,0.263-17.741,0.62
				c-13.914,0.896-21.204,2.317-34.493,6.476c-1.744,0.544-4.8,1.408-7.059,1.408c-0.877,0-1.633-0.133-2.144-0.464
				c-1.78-1.15-2.596-4.877-0.938-6.529c5.186-5.163,10.616-10.088,16.234-14.761c27.263-22.677,57.61-39.531,92.511-47.032
				c10.499-2.258,21.387-2.778,32.125-3.774c1.296-0.122,3.977-0.365,3.977-0.365s1.507-1.577,2.252-2.557
				c39.796-52.003,89.467-89.787,151.518-111.386c24.585-8.557,49.901-13.573,75.889-15.179c0.369-0.024,0.722-0.034,1.053-0.034
				C468.841,122.405,470.107,123.89,469.92,128.056z"/>
		</g>
	</g>
</g>
<g>
</g>
<g>
</g>
<g>
</g>
<g>
</g>
<g>
</g>
<g>
</g>
<g>
</g>
<g>
</g>
<g>
</g>
<g>
</g>
<g>
</g>
<g>
</g>
<g>
</g>
<g>
</g>
<g>
</g>
</svg>
